# xmcd
#
# Track frame offsets:
#	150
#	19216
#	33300
#	48750
#	60900
#	79950
#	94725
#	108975
#	125325
#	140775
#	157200
#
# Disc length: 2339 seconds
#
# Revision: 2
# Processed by: cddbd v1.4PL0 Copyright (c) Steve Scherf et al.
# Submitted via: audiograbber 1.81.01
#
DISCID=8e09210b
DTITLE=Jose Alfredo Fuentes - Duos
DYEAR=2002
DGENRE=Latin
TTITLE0=me faltas tu (valeria lynch)
TTITLE1=la niña esta trizte  (leo dan)
TTITLE2=querido amigo (antonio rios)
TTITLE3=si quieres dejarme (michele)
TTITLE4=era solo un chiquillo (gondwana)
TTITLE5=el amor no tiene olvido (dyango)
TTITLE6=te perdi (canal magdalena)
TTITLE7=el yerberito (olga tanon)
TTITLE8=lo se  (jose jose)
TTITLE9=mi bombom y mi chinchin (soledad)
TTITLE10=cantando (alberto plaza)
EXTD=
EXTT0=
EXTT1=
EXTT2=
EXTT3=
EXTT4=
EXTT5=
EXTT6=
EXTT7=
EXTT8=
EXTT9=
EXTT10=
PLAYORDER=
